<svg xmlns="http://www.w3.org/2000/svg" width="192" height="192" viewBox="0 0 192 192">
  <defs>
    <linearGradient id="bg" x1="0%" y1="0%" x2="100%" y2="100%">
      <stop offset="0%" style="stop-color:#2563EB"/>
      <stop offset="100%" style="stop-color:#1D4ED8"/>
    </linearGradient>
  </defs>
  <!-- Background -->
  <rect width="192" height="192" rx="35" fill="url(#bg)"/>
  <!-- Bus body -->
  <rect x="29" y="45" width="134" height="94" rx="12" fill="white"/>
  <!-- Bus roof accent -->
  <rect x="29" y="45" width="134" height="17" rx="12" fill="#DBEAFE"/>
  <rect x="29" y="53" width="134" height="8" fill="#DBEAFE"/>
  <!-- Windows -->
  <rect x="40" y="64" width="29" height="28" rx="4" fill="#2563EB" opacity="0.8"/>
  <rect x="76" y="64" width="29" height="28" rx="4" fill="#2563EB" opacity="0.8"/>
  <rect x="112" y="64" width="29" height="28" rx="4" fill="#2563EB" opacity="0.8"/>
  <!-- Door -->
  <rect x="147" y="64" width="8" height="52" rx="2" fill="#93C5FD"/>
  <!-- Stripe -->
  <rect x="29" y="106" width="134" height="8" fill="#2563EB" opacity="0.6"/>
  <!-- Wheels -->
  <circle cx="58" cy="139" r="10" fill="#1E293B"/>
  <circle cx="58" cy="139" r="5" fill="#94A3B8"/>
  <circle cx="134" cy="139" r="10" fill="#1E293B"/>
  <circle cx="134" cy="139" r="5" fill="#94A3B8"/>
  <!-- Headlights -->
  <rect x="33" y="97" width="7" height="8" rx="2" fill="#FCD34D"/>
  <rect x="152" y="97" width="7" height="8" rx="2" fill="#FCA5A5"/>
</svg>