<svg xmlns="http://www.w3.org/2000/svg" width="512" height="512" viewBox="0 0 512 512">
  <defs>
    <linearGradient id="bg" x1="0%" y1="0%" x2="100%" y2="100%">
      <stop offset="0%" style="stop-color:#2563EB"/>
      <stop offset="100%" style="stop-color:#1D4ED8"/>
    </linearGradient>
  </defs>
  <!-- Background -->
  <rect width="512" height="512" rx="92" fill="url(#bg)"/>
  <!-- Bus body -->
  <rect x="77" y="121" width="358" height="251" rx="31" fill="white"/>
  <!-- Bus roof accent -->
  <rect x="77" y="121" width="358" height="45" rx="31" fill="#DBEAFE"/>
  <rect x="77" y="144" width="358" height="23" fill="#DBEAFE"/>
  <!-- Windows -->
  <rect x="106" y="171" width="79" height="75" rx="10" fill="#2563EB" opacity="0.8"/>
  <rect x="202" y="171" width="79" height="75" rx="10" fill="#2563EB" opacity="0.8"/>
  <rect x="299" y="171" width="79" height="75" rx="10" fill="#2563EB" opacity="0.8"/>
  <!-- Door -->
  <rect x="392" y="171" width="21" height="138" rx="5" fill="#93C5FD"/>
  <!-- Stripe -->
  <rect x="77" y="284" width="358" height="20" fill="#2563EB" opacity="0.6"/>
  <!-- Wheels -->
  <circle cx="156" cy="372" r="26" fill="#1E293B"/>
  <circle cx="156" cy="372" r="13" fill="#94A3B8"/>
  <circle cx="356" cy="372" r="26" fill="#1E293B"/>
  <circle cx="356" cy="372" r="13" fill="#94A3B8"/>
  <!-- Headlights -->
  <rect x="88" y="259" width="18" height="20" rx="5" fill="#FCD34D"/>
  <rect x="406" y="259" width="18" height="20" rx="5" fill="#FCA5A5"/>
</svg>